<?xml version="1.0" encoding="utf-8" standalone="no"?>
<!DOCTYPE svg PUBLIC "-//W3C//DTD SVG 1.1//EN"
  "http://www.w3.org/Graphics/SVG/1.1/DTD/svg11.dtd">
<!-- Created with matplotlib (https://matplotlib.org/) -->
<svg height="269.424pt" version="1.1" viewBox="0 0 405 269.424" width="405pt" xmlns="http://www.w3.org/2000/svg" xmlns:xlink="http://www.w3.org/1999/xlink">
 <defs>
  <style type="text/css">
*{stroke-linecap:butt;stroke-linejoin:round;}
  </style>
 </defs>
 <g id="figure_1">
  <g id="patch_1">
   <path d="M 0 269.424 
L 405 269.424 
L 405 0 
L 0 0 
z
" style="fill:#ffffff;"/>
  </g>
  <g id="patch_2">
   <path d="M 7.2 262.224 
L 397.8 262.224 
L 397.8 7.2 
L 7.2 7.2 
z
" style="fill:#ffffff;"/>
  </g>
  <g id="pane3d_1">
   <g id="patch_3">
    <path d="M 207.778378 141.735182 
L 359.346993 191.865884 
L 367.452267 67.424925 
L 207.778378 22.427424 
" style="fill:#f2f2f2;opacity:0.5;stroke:#f2f2f2;stroke-linejoin:miter;"/>
   </g>
  </g>
  <g id="pane3d_2">
   <g id="patch_4">
    <path d="M 207.778378 141.735182 
L 56.209763 191.865884 
L 48.10449 67.424925 
L 207.778378 22.427424 
" style="fill:#e6e6e6;opacity:0.5;stroke:#e6e6e6;stroke-linejoin:miter;"/>
   </g>
  </g>
  <g id="pane3d_3">
   <g id="patch_5">
    <path d="M 207.778378 141.735182 
L 56.209763 191.865884 
L 207.778378 248.643025 
L 359.346993 191.865884 
" style="fill:#ececec;opacity:0.5;stroke:#ececec;stroke-linejoin:miter;"/>
   </g>
  </g>
  <g id="axis3d_1">
   <g id="line2d_1">
    <path d="M 359.346993 191.865884 
L 207.778378 248.643025 
" style="fill:none;stroke:#000000;stroke-linecap:square;stroke-width:0.8;"/>
   </g>
   <g id="text_1">
    <!-- F1 -->
    <defs>
     <path d="M 45.703125 61.328125 
L 13.671875 61.328125 
L 13.671875 39.453125 
L 37.890625 39.453125 
L 37.890625 32.03125 
L 13.671875 32.03125 
L 13.671875 1.953125 
L 4.6875 1.953125 
L 4.6875 68.75 
L 45.703125 68.75 
z
" id="SimHei-70"/>
     <path d="M 21.875 56.25 
Q 16.796875 51.171875 8.984375 46.484375 
L 8.984375 53.90625 
Q 18.75 60.546875 25 69.53125 
L 29.6875 69.53125 
L 29.6875 2.34375 
L 21.875 2.34375 
z
" id="SimHei-49"/>
    </defs>
    <g transform="translate(304.432273 248.549816)scale(0.1 -0.1)">
     <use xlink:href="#SimHei-70"/>
     <use x="50" xlink:href="#SimHei-49"/>
    </g>
   </g>
   <g id="Line3DCollection_1">
    <path d="M 350.265434 195.267809 
L 198.6637 144.749824 
L 198.204449 25.125441 
" style="fill:none;stroke:#b0b0b0;stroke-width:0.8;"/>
    <path d="M 325.039413 204.717399 
L 173.367903 153.116306 
L 171.615264 32.618507 
" style="fill:none;stroke:#b0b0b0;stroke-width:0.8;"/>
    <path d="M 299.252796 214.376987 
L 147.543675 161.657565 
L 144.442027 40.276163 
" style="fill:none;stroke:#b0b0b0;stroke-width:0.8;"/>
    <path d="M 272.886684 224.253652 
L 121.174281 170.379134 
L 116.665279 48.103894 
" style="fill:none;stroke:#b0b0b0;stroke-width:0.8;"/>
    <path d="M 245.921322 234.354794 
L 94.242274 179.286786 
L 88.264691 56.107429 
" style="fill:none;stroke:#b0b0b0;stroke-width:0.8;"/>
    <path d="M 218.336045 244.688155 
L 66.729456 188.386539 
L 59.219006 64.292757 
" style="fill:none;stroke:#b0b0b0;stroke-width:0.8;"/>
   </g>
   <g id="xtick_1">
    <g id="line2d_2">
     <path d="M 348.977563 194.838654 
L 352.845037 196.127406 
" style="fill:none;stroke:#000000;stroke-linecap:square;stroke-width:0.8;"/>
    </g>
    <g id="text_2">
     <!-- 0.0 -->
     <defs>
      <path d="M 3.125 29.296875 
Q 3.90625 50 6.4375 56.046875 
Q 8.984375 62.109375 13.671875 66.015625 
Q 18.359375 69.921875 25.1875 69.921875 
Q 32.03125 69.921875 37.109375 64.25 
Q 42.1875 58.59375 43.75 50 
Q 45.3125 41.40625 44.71875 30.265625 
Q 44.140625 19.140625 40.8125 12.109375 
Q 37.5 5.078125 30.859375 2.34375 
Q 24.21875 -0.390625 17.578125 2.921875 
Q 10.9375 6.25 8.203125 11.71875 
Q 5.46875 17.1875 4.296875 23.234375 
Q 3.125 29.296875 3.90625 50 
z
M 12.890625 52.734375 
Q 10.546875 31.25 12.5 22.84375 
Q 14.453125 14.453125 18.9375 10.9375 
Q 23.4375 7.421875 28.125 9.5625 
Q 32.8125 11.71875 34.953125 18.15625 
Q 37.109375 24.609375 37.109375 32.21875 
Q 37.109375 39.84375 36.515625 46.09375 
Q 35.9375 52.34375 33 57.421875 
Q 30.078125 62.5 25.1875 62.6875 
Q 20.3125 62.890625 16.59375 57.8125 
Q 12.890625 52.734375 10.546875 31.25 
z
" id="SimHei-48"/>
      <path d="M 16.796875 1.953125 
L 7.8125 1.953125 
L 7.8125 10.546875 
L 16.796875 10.546875 
z
" id="SimHei-46"/>
     </defs>
     <g transform="translate(353.29362 213.922889)scale(0.1 -0.1)">
      <use xlink:href="#SimHei-48"/>
      <use x="50" xlink:href="#SimHei-46"/>
      <use x="100" xlink:href="#SimHei-48"/>
     </g>
    </g>
   </g>
   <g id="xtick_2">
    <g id="line2d_3">
     <path d="M 323.750125 204.278762 
L 327.621899 205.596002 
" style="fill:none;stroke:#000000;stroke-linecap:square;stroke-width:0.8;"/>
    </g>
    <g id="text_3">
     <!-- 0.1 -->
     <g transform="translate(328.163394 223.509527)scale(0.1 -0.1)">
      <use xlink:href="#SimHei-48"/>
      <use x="50" xlink:href="#SimHei-46"/>
      <use x="100" xlink:href="#SimHei-49"/>
     </g>
    </g>
   </g>
   <g id="xtick_3">
    <g id="line2d_4">
     <path d="M 297.962345 213.928551 
L 301.837655 215.275234 
" style="fill:none;stroke:#000000;stroke-linecap:square;stroke-width:0.8;"/>
    </g>
    <g id="text_4">
     <!-- 0.2 -->
     <defs>
      <path d="M 4.6875 3.90625 
Q 5.078125 9.765625 10.15625 14.453125 
Q 15.234375 19.140625 23.046875 29.09375 
Q 30.859375 39.0625 33.203125 44.53125 
Q 35.546875 50 34.953125 53.90625 
Q 34.375 57.8125 31.25 60.34375 
Q 28.125 62.890625 24.015625 62.5 
Q 19.921875 62.109375 16.203125 59.375 
Q 12.5 56.640625 10.546875 51.171875 
L 3.125 52.34375 
Q 6.25 61.328125 11.125 65.421875 
Q 16.015625 69.53125 22.65625 69.921875 
Q 26.5625 70.3125 29.6875 69.71875 
Q 32.8125 69.140625 36.125 66.984375 
Q 39.453125 64.84375 41.59375 60.546875 
Q 43.75 56.25 43.15625 50.1875 
Q 42.578125 44.140625 37.109375 35.734375 
Q 31.640625 27.34375 16.015625 9.375 
L 44.140625 9.375 
L 44.140625 2.34375 
L 4.6875 2.34375 
z
" id="SimHei-50"/>
     </defs>
     <g transform="translate(302.474252 233.309381)scale(0.1 -0.1)">
      <use xlink:href="#SimHei-48"/>
      <use x="50" xlink:href="#SimHei-46"/>
      <use x="100" xlink:href="#SimHei-50"/>
     </g>
    </g>
   </g>
   <g id="xtick_4">
    <g id="line2d_5">
     <path d="M 271.595343 223.795084 
L 275.473371 225.172209 
" style="fill:none;stroke:#000000;stroke-linecap:square;stroke-width:0.8;"/>
    </g>
    <g id="text_5">
     <!-- 0.3 -->
     <defs>
      <path d="M 3.90625 19.140625 
L 10.9375 20.3125 
Q 12.5 15.234375 16.015625 11.90625 
Q 19.53125 8.59375 24.796875 8.78125 
Q 30.078125 8.984375 33.203125 13.078125 
Q 36.328125 17.1875 35.9375 22.453125 
Q 35.546875 27.734375 31.828125 30.65625 
Q 28.125 33.59375 19.921875 34.765625 
L 19.921875 39.84375 
Q 28.125 40.625 31.828125 44.140625 
Q 35.546875 47.65625 35.15625 53.3125 
Q 34.765625 58.984375 30.078125 61.515625 
Q 25.390625 64.0625 20.109375 62.109375 
Q 14.84375 60.15625 11.71875 51.171875 
L 4.6875 52.34375 
Q 7.03125 59.375 11.125 64.0625 
Q 15.234375 68.75 22.265625 69.53125 
Q 29.296875 70.3125 34.5625 67.765625 
Q 39.84375 65.234375 41.984375 59.953125 
Q 44.140625 54.6875 42.578125 48.4375 
Q 41.015625 42.1875 33.59375 37.5 
Q 39.0625 35.15625 41.984375 30.46875 
Q 44.921875 25.78125 43.9375 18.15625 
Q 42.96875 10.546875 37.109375 5.859375 
Q 31.25 1.171875 23.828125 1.359375 
Q 16.40625 1.5625 10.9375 6.046875 
Q 5.46875 10.546875 3.90625 19.140625 
z
" id="SimHei-51"/>
     </defs>
     <g transform="translate(276.207339 243.329641)scale(0.1 -0.1)">
      <use xlink:href="#SimHei-48"/>
      <use x="50" xlink:href="#SimHei-46"/>
      <use x="100" xlink:href="#SimHei-51"/>
     </g>
    </g>
   </g>
   <g id="xtick_5">
    <g id="line2d_6">
     <path d="M 244.629383 233.885748 
L 248.509251 235.294358 
" style="fill:none;stroke:#000000;stroke-linecap:square;stroke-width:0.8;"/>
    </g>
    <g id="text_6">
     <!-- 0.4 -->
     <defs>
      <path d="M 31.25 17.1875 
L 1.171875 17.1875 
L 1.171875 23.828125 
L 32.8125 69.53125 
L 38.671875 69.53125 
L 38.671875 23.828125 
L 48.046875 23.828125 
L 48.046875 17.1875 
L 38.671875 17.1875 
L 38.671875 2.34375 
L 31.25 2.34375 
z
M 31.25 23.828125 
L 31.25 54.6875 
L 9.375 23.828125 
z
" id="SimHei-52"/>
     </defs>
     <g transform="translate(249.34294 253.57783)scale(0.1 -0.1)">
      <use xlink:href="#SimHei-48"/>
      <use x="50" xlink:href="#SimHei-46"/>
      <use x="100" xlink:href="#SimHei-52"/>
     </g>
    </g>
   </g>
   <g id="xtick_6">
    <g id="line2d_7">
     <path d="M 217.043822 244.208266 
L 220.92459 245.649454 
" style="fill:none;stroke:#000000;stroke-linecap:square;stroke-width:0.8;"/>
    </g>
    <g id="text_7">
     <!-- 0.5 -->
     <defs>
      <path d="M 8.59375 20.703125 
Q 11.328125 10.15625 17.96875 8.984375 
Q 24.609375 7.8125 28.703125 10.34375 
Q 32.8125 12.890625 34.5625 16.984375 
Q 36.328125 21.09375 36.125 26.171875 
Q 35.9375 31.25 33.390625 34.765625 
Q 30.859375 38.28125 26.953125 39.453125 
Q 23.046875 40.625 18.15625 39.453125 
Q 13.28125 38.28125 10.15625 33.984375 
L 3.515625 34.765625 
Q 4.296875 37.109375 10.9375 68.359375 
L 41.796875 68.359375 
L 41.796875 61.328125 
L 16.796875 61.328125 
Q 14.84375 50.78125 12.890625 44.53125 
Q 18.75 47.265625 23.828125 47.0625 
Q 28.90625 46.875 33.59375 44.71875 
Q 38.28125 42.578125 40.421875 38.859375 
Q 42.578125 35.15625 43.546875 31.4375 
Q 44.53125 27.734375 44.328125 23.4375 
Q 44.140625 19.140625 42.578125 14.640625 
Q 41.015625 10.15625 37.890625 7.21875 
Q 34.765625 4.296875 30.265625 2.53125 
Q 25.78125 0.78125 19.921875 1.171875 
Q 14.0625 1.5625 8.78125 5.46875 
Q 3.515625 9.375 1.5625 18.75 
z
" id="SimHei-53"/>
     </defs>
     <g transform="translate(221.860435 264.061812)scale(0.1 -0.1)">
      <use xlink:href="#SimHei-48"/>
      <use x="50" xlink:href="#SimHei-46"/>
      <use x="100" xlink:href="#SimHei-53"/>
     </g>
    </g>
   </g>
  </g>
  <g id="axis3d_2">
   <g id="line2d_8">
    <path d="M 56.209763 191.865884 
L 207.778378 248.643025 
" style="fill:none;stroke:#000000;stroke-linecap:square;stroke-width:0.8;"/>
   </g>
   <g id="text_8">
    <!-- F2 -->
    <g transform="translate(101.124484 248.549816)scale(0.1 -0.1)">
     <use xlink:href="#SimHei-70"/>
     <use x="50" xlink:href="#SimHei-50"/>
    </g>
   </g>
   <g id="Line3DCollection_2">
    <path d="M 217.352308 25.125441 
L 216.893056 144.749824 
L 65.291323 195.267809 
" style="fill:none;stroke:#b0b0b0;stroke-width:0.8;"/>
    <path d="M 243.94127 32.618444 
L 242.188641 153.116236 
L 90.517132 204.71732 
" style="fill:none;stroke:#b0b0b0;stroke-width:0.8;"/>
    <path d="M 271.114274 40.276035 
L 268.012649 161.657421 
L 116.303528 214.376825 
" style="fill:none;stroke:#b0b0b0;stroke-width:0.8;"/>
    <path d="M 298.890778 48.103697 
L 294.381812 170.378915 
L 142.669408 224.253403 
" style="fill:none;stroke:#b0b0b0;stroke-width:0.8;"/>
    <path d="M 327.291112 56.10716 
L 321.313578 179.286487 
L 169.634529 234.354455 
" style="fill:none;stroke:#b0b0b0;stroke-width:0.8;"/>
    <path d="M 356.336531 64.292414 
L 348.826146 188.386157 
L 197.219553 244.687721 
" style="fill:none;stroke:#b0b0b0;stroke-width:0.8;"/>
   </g>
   <g id="xtick_7">
    <g id="line2d_9">
     <path d="M 66.579194 194.838654 
L 62.711719 196.127406 
" style="fill:none;stroke:#000000;stroke-linecap:square;stroke-width:0.8;"/>
    </g>
    <g id="text_9">
     <!-- 0.0 -->
     <g transform="translate(47.263137 213.922889)scale(0.1 -0.1)">
      <use xlink:href="#SimHei-48"/>
      <use x="50" xlink:href="#SimHei-46"/>
      <use x="100" xlink:href="#SimHei-48"/>
     </g>
    </g>
   </g>
   <g id="xtick_8">
    <g id="line2d_10">
     <path d="M 91.80642 204.278683 
L 87.934646 205.595923 
" style="fill:none;stroke:#000000;stroke-linecap:square;stroke-width:0.8;"/>
    </g>
    <g id="text_10">
     <!-- 0.1 -->
     <g transform="translate(72.393152 223.509447)scale(0.1 -0.1)">
      <use xlink:href="#SimHei-48"/>
      <use x="50" xlink:href="#SimHei-46"/>
      <use x="100" xlink:href="#SimHei-49"/>
     </g>
    </g>
   </g>
   <g id="xtick_9">
    <g id="line2d_11">
     <path d="M 117.593979 213.928389 
L 113.718669 215.275072 
" style="fill:none;stroke:#000000;stroke-linecap:square;stroke-width:0.8;"/>
    </g>
    <g id="text_11">
     <!-- 0.2 -->
     <g transform="translate(98.082073 233.309216)scale(0.1 -0.1)">
      <use xlink:href="#SimHei-48"/>
      <use x="50" xlink:href="#SimHei-46"/>
      <use x="100" xlink:href="#SimHei-50"/>
     </g>
    </g>
   </g>
   <g id="xtick_10">
    <g id="line2d_12">
     <path d="M 143.96075 223.794836 
L 140.082722 225.17196 
" style="fill:none;stroke:#000000;stroke-linecap:square;stroke-width:0.8;"/>
    </g>
    <g id="text_12">
     <!-- 0.3 -->
     <g transform="translate(124.348756 243.329389)scale(0.1 -0.1)">
      <use xlink:href="#SimHei-48"/>
      <use x="50" xlink:href="#SimHei-46"/>
      <use x="100" xlink:href="#SimHei-51"/>
     </g>
    </g>
   </g>
   <g id="xtick_11">
    <g id="line2d_13">
     <path d="M 170.926468 233.885409 
L 167.0466 235.294018 
" style="fill:none;stroke:#000000;stroke-linecap:square;stroke-width:0.8;"/>
    </g>
    <g id="text_13">
     <!-- 0.4 -->
     <g transform="translate(151.212914 253.577485)scale(0.1 -0.1)">
      <use xlink:href="#SimHei-48"/>
      <use x="50" xlink:href="#SimHei-46"/>
      <use x="100" xlink:href="#SimHei-52"/>
     </g>
    </g>
   </g>
   <g id="xtick_12">
    <g id="line2d_14">
     <path d="M 198.511777 244.207833 
L 194.631008 245.649019 
" style="fill:none;stroke:#000000;stroke-linecap:square;stroke-width:0.8;"/>
    </g>
    <g id="text_14">
     <!-- 0.5 -->
     <g transform="translate(178.695167 264.061372)scale(0.1 -0.1)">
      <use xlink:href="#SimHei-48"/>
      <use x="50" xlink:href="#SimHei-46"/>
      <use x="100" xlink:href="#SimHei-53"/>
     </g>
    </g>
   </g>
  </g>
  <g id="axis3d_3">
   <g id="line2d_15">
    <path d="M 56.209763 191.865884 
L 48.10449 67.424925 
" style="fill:none;stroke:#000000;stroke-linecap:square;stroke-width:0.8;"/>
   </g>
   <g id="text_15">
    <!-- F3 -->
    <g transform="translate(1.014357 134.07823)scale(0.1 -0.1)">
     <use xlink:href="#SimHei-70"/>
     <use x="50" xlink:href="#SimHei-51"/>
    </g>
   </g>
   <g id="Line3DCollection_3">
    <path d="M 56.05573 189.501 
L 207.778378 139.460888 
L 359.501027 189.501 
" style="fill:none;stroke:#b0b0b0;stroke-width:0.8;"/>
    <path d="M 54.564339 166.60354 
L 207.778378 117.454531 
L 360.992418 166.60354 
" style="fill:none;stroke:#b0b0b0;stroke-width:0.8;"/>
    <path d="M 53.043336 143.251461 
L 207.778378 95.037323 
L 362.51342 143.251461 
" style="fill:none;stroke:#b0b0b0;stroke-width:0.8;"/>
    <path d="M 51.491832 119.431086 
L 207.778378 72.197649 
L 364.064924 119.431086 
" style="fill:none;stroke:#b0b0b0;stroke-width:0.8;"/>
    <path d="M 49.9089 95.128186 
L 207.778378 48.923453 
L 365.647857 95.128186 
" style="fill:none;stroke:#b0b0b0;stroke-width:0.8;"/>
    <path d="M 48.293574 70.327951 
L 207.778378 25.202217 
L 367.263183 70.327951 
" style="fill:none;stroke:#b0b0b0;stroke-width:0.8;"/>
   </g>
   <g id="xtick_13">
    <g id="line2d_16">
     <path d="M 57.344407 189.075978 
L 53.474523 190.352316 
" style="fill:none;stroke:#000000;stroke-linecap:square;stroke-width:0.8;"/>
    </g>
    <g id="text_16">
     <!-- 0.0 -->
     <g transform="translate(27.800392 196.376)scale(0.1 -0.1)">
      <use xlink:href="#SimHei-48"/>
      <use x="50" xlink:href="#SimHei-46"/>
      <use x="100" xlink:href="#SimHei-48"/>
     </g>
    </g>
   </g>
   <g id="xtick_14">
    <g id="line2d_17">
     <path d="M 55.866426 166.185848 
L 51.956233 167.440186 
" style="fill:none;stroke:#000000;stroke-linecap:square;stroke-width:0.8;"/>
    </g>
    <g id="text_17">
     <!-- 0.1 -->
     <g transform="translate(26.104982 173.47854)scale(0.1 -0.1)">
      <use xlink:href="#SimHei-48"/>
      <use x="50" xlink:href="#SimHei-46"/>
      <use x="100" xlink:href="#SimHei-49"/>
     </g>
    </g>
   </g>
   <g id="xtick_15">
    <g id="line2d_18">
     <path d="M 54.359115 142.841475 
L 50.407766 144.072682 
" style="fill:none;stroke:#000000;stroke-linecap:square;stroke-width:0.8;"/>
    </g>
    <g id="text_18">
     <!-- 0.2 -->
     <g transform="translate(24.375909 150.126461)scale(0.1 -0.1)">
      <use xlink:href="#SimHei-48"/>
      <use x="50" xlink:href="#SimHei-46"/>
      <use x="100" xlink:href="#SimHei-50"/>
     </g>
    </g>
   </g>
   <g id="xtick_16">
    <g id="line2d_19">
     <path d="M 52.821593 119.029201 
L 48.828216 120.236093 
" style="fill:none;stroke:#000000;stroke-linecap:square;stroke-width:0.8;"/>
    </g>
    <g id="text_19">
     <!-- 0.3 -->
     <g transform="translate(22.612163 126.306086)scale(0.1 -0.1)">
      <use xlink:href="#SimHei-48"/>
      <use x="50" xlink:href="#SimHei-46"/>
      <use x="100" xlink:href="#SimHei-51"/>
     </g>
    </g>
   </g>
   <g id="xtick_17">
    <g id="line2d_20">
     <path d="M 51.252941 94.734817 
L 47.216635 95.91615 
" style="fill:none;stroke:#000000;stroke-linecap:square;stroke-width:0.8;"/>
    </g>
    <g id="text_20">
     <!-- 0.4 -->
     <g transform="translate(20.812688 102.003186)scale(0.1 -0.1)">
      <use xlink:href="#SimHei-48"/>
      <use x="50" xlink:href="#SimHei-46"/>
      <use x="100" xlink:href="#SimHei-52"/>
     </g>
    </g>
   </g>
   <g id="xtick_18">
    <g id="line2d_21">
     <path d="M 49.652205 69.94353 
L 45.572041 71.098 
" style="fill:none;stroke:#000000;stroke-linecap:square;stroke-width:0.8;"/>
    </g>
    <g id="text_21">
     <!-- 0.5 -->
     <g transform="translate(18.976389 77.202951)scale(0.1 -0.1)">
      <use xlink:href="#SimHei-48"/>
      <use x="50" xlink:href="#SimHei-46"/>
      <use x="100" xlink:href="#SimHei-53"/>
     </g>
    </g>
   </g>
  </g>
  <g id="axes_1">
   <g id="line2d_22">
    <defs>
     <path d="M 0 1.5 
C 0.397805 1.5 0.77937 1.341951 1.06066 1.06066 
C 1.341951 0.77937 1.5 0.397805 1.5 0 
C 1.5 -0.397805 1.341951 -0.77937 1.06066 -1.06066 
C 0.77937 -1.341951 0.397805 -1.5 0 -1.5 
C -0.397805 -1.5 -0.77937 -1.341951 -1.06066 -1.06066 
C -1.341951 -0.77937 -1.5 -0.397805 -1.5 0 
C -1.5 0.397805 -1.341951 0.77937 -1.06066 1.06066 
C -0.77937 1.341951 -0.397805 1.5 0 1.5 
z
" id="md20a137063" style="stroke:#4682b4;"/>
    </defs>
    <g clip-path="url(#pf29ee61980)">
     <use style="fill:#4682b4;stroke:#4682b4;" x="119.440879" xlink:href="#md20a137063" y="162.855952"/>
     <use style="fill:#4682b4;stroke:#4682b4;" x="185.723726" xlink:href="#md20a137063" y="189.503107"/>
     <use style="fill:#4682b4;stroke:#4682b4;" x="141.613652" xlink:href="#md20a137063" y="162.865974"/>
     <use style="fill:#4682b4;stroke:#4682b4;" x="130.432834" xlink:href="#md20a137063" y="176.173341"/>
     <use style="fill:#4682b4;stroke:#4682b4;" x="240.819348" xlink:href="#md20a137063" y="149.525773"/>
     <use style="fill:#4682b4;stroke:#4682b4;" x="285.09404" xlink:href="#md20a137063" y="149.93909"/>
     <use style="fill:#4682b4;stroke:#4682b4;" x="318.114207" xlink:href="#md20a137063" y="189.506135"/>
     <use style="fill:#4682b4;stroke:#4682b4;" x="307.044756" xlink:href="#md20a137063" y="176.204978"/>
     <use style="fill:#4682b4;stroke:#4682b4;" x="229.682994" xlink:href="#md20a137063" y="83.209584"/>
     <use style="fill:#4682b4;stroke:#4682b4;" x="130.610724" xlink:href="#md20a137063" y="149.541362"/>
     <use style="fill:#4682b4;stroke:#4682b4;" x="318.026477" xlink:href="#md20a137063" y="162.861689"/>
     <use style="fill:#4682b4;stroke:#4682b4;" x="262.904958" xlink:href="#md20a137063" y="149.513173"/>
     <use style="fill:#4682b4;stroke:#4682b4;" x="251.827056" xlink:href="#md20a137063" y="162.896471"/>
     <use style="fill:#4682b4;stroke:#4682b4;" x="174.708754" xlink:href="#md20a137063" y="122.964501"/>
     <use style="fill:#4682b4;stroke:#4682b4;" x="86.452498" xlink:href="#md20a137063" y="176.173165"/>
     <use style="fill:#4682b4;stroke:#4682b4;" x="295.825959" xlink:href="#md20a137063" y="162.862638"/>
     <use style="fill:#4682b4;stroke:#4682b4;" x="163.801263" xlink:href="#md20a137063" y="83.212392"/>
     <use style="fill:#4682b4;stroke:#4682b4;" x="152.742211" xlink:href="#md20a137063" y="149.524861"/>
     <use style="fill:#4682b4;stroke:#4682b4;" x="296.068695" xlink:href="#md20a137063" y="189.502085"/>
     <use style="fill:#4682b4;stroke:#4682b4;" x="218.782952" xlink:href="#md20a137063" y="70.012819"/>
     <use style="fill:#4682b4;stroke:#4682b4;" x="273.804247" xlink:href="#md20a137063" y="109.709867"/>
     <use style="fill:#4682b4;stroke:#4682b4;" x="196.797621" xlink:href="#md20a137063" y="43.555812"/>
     <use style="fill:#4682b4;stroke:#4682b4;" x="108.485099" xlink:href="#md20a137063" y="176.205887"/>
     <use style="fill:#4682b4;stroke:#4682b4;" x="229.843048" xlink:href="#md20a137063" y="162.899289"/>
     <use style="fill:#4682b4;stroke:#4682b4;" x="207.804545" xlink:href="#md20a137063" y="162.856558"/>
     <use style="fill:#4682b4;stroke:#4682b4;" x="207.828887" xlink:href="#md20a137063" y="83.211605"/>
     <use style="fill:#4682b4;stroke:#4682b4;" x="207.599446" xlink:href="#md20a137063" y="109.713599"/>
     <use style="fill:#4682b4;stroke:#4682b4;" x="229.81946" xlink:href="#md20a137063" y="136.245433"/>
     <use style="fill:#4682b4;stroke:#4682b4;" x="196.692875" xlink:href="#md20a137063" y="122.970938"/>
     <use style="fill:#4682b4;stroke:#4682b4;" x="207.930454" xlink:href="#md20a137063" y="189.501042"/>
     <use style="fill:#4682b4;stroke:#4682b4;" x="273.823863" xlink:href="#md20a137063" y="136.35234"/>
     <use style="fill:#4682b4;stroke:#4682b4;" x="196.815037" xlink:href="#md20a137063" y="96.427522"/>
     <use style="fill:#4682b4;stroke:#4682b4;" x="329.100715" xlink:href="#md20a137063" y="176.172189"/>
     <use style="fill:#4682b4;stroke:#4682b4;" x="130.717153" xlink:href="#md20a137063" y="122.971026"/>
     <use style="fill:#4682b4;stroke:#4682b4;" x="274.062572" xlink:href="#md20a137063" y="189.51131"/>
     <use style="fill:#4682b4;stroke:#4682b4;" x="240.753786" xlink:href="#md20a137063" y="69.993385"/>
     <use style="fill:#4682b4;stroke:#4682b4;" x="251.751853" xlink:href="#md20a137063" y="83.209691"/>
     <use style="fill:#4682b4;stroke:#4682b4;" x="185.830654" xlink:href="#md20a137063" y="83.241391"/>
     <use style="fill:#4682b4;stroke:#4682b4;" x="262.920805" xlink:href="#md20a137063" y="176.204741"/>
     <use style="fill:#4682b4;stroke:#4682b4;" x="196.811518" xlink:href="#md20a137063" y="69.975697"/>
     <use style="fill:#4682b4;stroke:#4682b4;" x="251.77239" xlink:href="#md20a137063" y="109.767342"/>
     <use style="fill:#4682b4;stroke:#4682b4;" x="262.93709" xlink:href="#md20a137063" y="122.948557"/>
     <use style="fill:#4682b4;stroke:#4682b4;" x="218.759389" xlink:href="#md20a137063" y="43.55259"/>
     <use style="fill:#4682b4;stroke:#4682b4;" x="75.365885" xlink:href="#md20a137063" y="189.501"/>
     <use style="fill:#4682b4;stroke:#4682b4;" x="207.80357" xlink:href="#md20a137063" y="56.722531"/>
     <use style="fill:#4682b4;stroke:#4682b4;" x="174.668869" xlink:href="#md20a137063" y="149.540554"/>
     <use style="fill:#4682b4;stroke:#4682b4;" x="185.744025" xlink:href="#md20a137063" y="136.3984"/>
     <use style="fill:#4682b4;stroke:#4682b4;" x="229.842401" xlink:href="#md20a137063" y="189.502025"/>
     <use style="fill:#4682b4;stroke:#4682b4;" x="207.778378" xlink:href="#md20a137063" y="30.362377"/>
     <use style="fill:#4682b4;stroke:#4682b4;" x="185.89926" xlink:href="#md20a137063" y="56.649384"/>
     <use style="fill:#4682b4;stroke:#4682b4;" x="218.789033" xlink:href="#md20a137063" y="123.004281"/>
     <use style="fill:#4682b4;stroke:#4682b4;" x="185.961978" xlink:href="#md20a137063" y="162.862103"/>
     <use style="fill:#4682b4;stroke:#4682b4;" x="240.879527" xlink:href="#md20a137063" y="176.174213"/>
     <use style="fill:#4682b4;stroke:#4682b4;" x="163.782118" xlink:href="#md20a137063" y="162.814047"/>
     <use style="fill:#4682b4;stroke:#4682b4;" x="152.729623" xlink:href="#md20a137063" y="122.888835"/>
     <use style="fill:#4682b4;stroke:#4682b4;" x="218.819994" xlink:href="#md20a137063" y="96.443549"/>
     <use style="fill:#4682b4;stroke:#4682b4;" x="163.866098" xlink:href="#md20a137063" y="109.709968"/>
     <use style="fill:#4682b4;stroke:#4682b4;" x="119.443113" xlink:href="#md20a137063" y="189.502795"/>
     <use style="fill:#4682b4;stroke:#4682b4;" x="152.542848" xlink:href="#md20a137063" y="176.188774"/>
     <use style="fill:#4682b4;stroke:#4682b4;" x="295.900462" xlink:href="#md20a137063" y="136.267183"/>
     <use style="fill:#4682b4;stroke:#4682b4;" x="306.941002" xlink:href="#md20a137063" y="149.540415"/>
     <use style="fill:#4682b4;stroke:#4682b4;" x="251.855116" xlink:href="#md20a137063" y="136.273856"/>
     <use style="fill:#4682b4;stroke:#4682b4;" x="119.65161" xlink:href="#md20a137063" y="136.274565"/>
     <use style="fill:#4682b4;stroke:#4682b4;" x="142.00602" xlink:href="#md20a137063" y="136.045118"/>
     <use style="fill:#4682b4;stroke:#4682b4;" x="251.915722" xlink:href="#md20a137063" y="189.501436"/>
     <use style="fill:#4682b4;stroke:#4682b4;" x="340.190871" xlink:href="#md20a137063" y="189.501"/>
     <use style="fill:#4682b4;stroke:#4682b4;" x="229.712955" xlink:href="#md20a137063" y="56.721394"/>
     <use style="fill:#4682b4;stroke:#4682b4;" x="229.801311" xlink:href="#md20a137063" y="109.714598"/>
     <use style="fill:#4682b4;stroke:#4682b4;" x="196.728325" xlink:href="#md20a137063" y="176.196811"/>
     <use style="fill:#4682b4;stroke:#4682b4;" x="284.837305" xlink:href="#md20a137063" y="122.971299"/>
     <use style="fill:#4682b4;stroke:#4682b4;" x="174.917199" xlink:href="#md20a137063" y="176.188304"/>
     <use style="fill:#4682b4;stroke:#4682b4;" x="163.567099" xlink:href="#md20a137063" y="189.501731"/>
     <use style="fill:#4682b4;stroke:#4682b4;" x="185.810914" xlink:href="#md20a137063" y="109.70874"/>
     <use style="fill:#4682b4;stroke:#4682b4;" x="108.605523" xlink:href="#md20a137063" y="149.552059"/>
     <use style="fill:#4682b4;stroke:#4682b4;" x="274.11648" xlink:href="#md20a137063" y="162.854441"/>
     <use style="fill:#4682b4;stroke:#4682b4;" x="141.59204" xlink:href="#md20a137063" y="189.502025"/>
     <use style="fill:#4682b4;stroke:#4682b4;" x="174.777888" xlink:href="#md20a137063" y="96.461863"/>
     <use style="fill:#4682b4;stroke:#4682b4;" x="97.452722" xlink:href="#md20a137063" y="189.501844"/>
     <use style="fill:#4682b4;stroke:#4682b4;" x="97.534276" xlink:href="#md20a137063" y="162.856609"/>
     <use style="fill:#4682b4;stroke:#4682b4;" x="218.819557" xlink:href="#md20a137063" y="149.541133"/>
     <use style="fill:#4682b4;stroke:#4682b4;" x="196.79893" xlink:href="#md20a137063" y="149.525907"/>
     <use style="fill:#4682b4;stroke:#4682b4;" x="152.778942" xlink:href="#md20a137063" y="96.461095"/>
     <use style="fill:#4682b4;stroke:#4682b4;" x="207.879439" xlink:href="#md20a137063" y="136.236685"/>
     <use style="fill:#4682b4;stroke:#4682b4;" x="262.658796" xlink:href="#md20a137063" y="96.566918"/>
     <use style="fill:#4682b4;stroke:#4682b4;" x="163.78292" xlink:href="#md20a137063" y="136.23249"/>
     <use style="fill:#4682b4;stroke:#4682b4;" x="218.809146" xlink:href="#md20a137063" y="176.191529"/>
     <use style="fill:#4682b4;stroke:#4682b4;" x="141.75423" xlink:href="#md20a137063" y="109.711279"/>
     <use style="fill:#4682b4;stroke:#4682b4;" x="240.508706" xlink:href="#md20a137063" y="122.979532"/>
     <use style="fill:#4682b4;stroke:#4682b4;" x="284.763308" xlink:href="#md20a137063" y="176.071027"/>
     <use style="fill:#4682b4;stroke:#4682b4;" x="240.832192" xlink:href="#md20a137063" y="96.445784"/>
     <use style="fill:#4682b4;stroke:#4682b4;" x="174.815652" xlink:href="#md20a137063" y="69.975807"/>
    </g>
   </g>
   <g id="legend_1">
    <g id="patch_6">
     <path d="M 298.8 28.45 
L 390.8 28.45 
Q 392.8 28.45 392.8 26.45 
L 392.8 14.2 
Q 392.8 12.2 390.8 12.2 
L 298.8 12.2 
Q 296.8 12.2 296.8 14.2 
L 296.8 26.45 
Q 296.8 28.45 298.8 28.45 
z
" style="fill:#ffffff;opacity:0.8;stroke:#cccccc;stroke-linejoin:miter;"/>
    </g>
    <g id="line2d_23"/>
    <g id="line2d_24">
     <g>
      <use style="fill:#4682b4;stroke:#4682b4;" x="310.8" xlink:href="#md20a137063" y="19.7"/>
     </g>
    </g>
    <g id="text_22">
     <!-- Pareto Front -->
     <defs>
      <path d="M 46.09375 48.4375 
Q 46.09375 39.0625 40.625 33.59375 
Q 35.15625 28.125 25.390625 28.125 
L 14.0625 28.125 
L 14.0625 1.953125 
L 5.078125 1.953125 
L 5.078125 68.75 
L 25.390625 68.75 
Q 35.15625 68.75 40.625 63.28125 
Q 46.09375 57.8125 46.09375 48.4375 
z
M 37.109375 48.4375 
Q 37.109375 55.859375 33.59375 58.59375 
Q 30.078125 61.328125 23.046875 61.328125 
L 14.0625 61.328125 
L 14.0625 35.546875 
L 23.046875 35.546875 
Q 30.078125 35.546875 33.59375 38.28125 
Q 37.109375 41.015625 37.109375 48.4375 
z
" id="SimHei-80"/>
      <path d="M 44.921875 1.953125 
L 35.546875 1.953125 
Q 34.765625 2.734375 34.375 4.09375 
Q 33.984375 5.46875 33.984375 7.421875 
Q 31.25 4.296875 27.34375 2.734375 
Q 23.4375 1.171875 19.140625 1.171875 
Q 12.890625 1.171875 8.59375 4.296875 
Q 4.296875 7.421875 4.296875 13.28125 
Q 4.296875 19.140625 8.203125 22.65625 
Q 12.109375 26.171875 20.3125 27.34375 
Q 25.78125 28.125 29.875 29.296875 
Q 33.984375 30.46875 33.984375 32.421875 
Q 33.984375 34.765625 32.21875 37.109375 
Q 30.46875 39.453125 24.609375 39.453125 
Q 19.921875 39.453125 17.765625 37.6875 
Q 15.625 35.9375 14.84375 32.8125 
L 6.25 32.8125 
Q 7.03125 39.0625 11.90625 42.765625 
Q 16.796875 46.484375 24.609375 46.484375 
Q 33.203125 46.484375 37.5 42.578125 
Q 41.796875 38.671875 41.796875 31.640625 
L 41.796875 10.15625 
Q 41.796875 7.8125 42.578125 5.859375 
Q 43.359375 3.90625 44.921875 1.953125 
z
M 33.984375 16.40625 
L 33.984375 24.21875 
Q 31.640625 23.4375 29.484375 22.84375 
Q 27.34375 22.265625 22.265625 21.484375 
Q 16.40625 20.703125 14.640625 18.75 
Q 12.890625 16.796875 12.890625 14.0625 
Q 12.890625 11.71875 14.640625 9.953125 
Q 16.40625 8.203125 19.921875 8.203125 
Q 23.4375 8.203125 27.53125 10.15625 
Q 31.640625 12.109375 33.984375 16.40625 
z
" id="SimHei-97"/>
      <path d="M 39.0625 37.890625 
Q 31.640625 39.0625 26.5625 35.734375 
Q 21.484375 32.421875 17.96875 24.21875 
L 17.96875 1.953125 
L 10.15625 1.953125 
L 10.15625 45.703125 
L 17.96875 45.703125 
L 17.96875 34.375 
Q 21.484375 40.625 26.75 43.546875 
Q 32.03125 46.484375 39.0625 46.484375 
z
" id="SimHei-114"/>
      <path d="M 44.53125 16.796875 
Q 43.75 9.765625 38.28125 5.46875 
Q 32.8125 1.171875 25.390625 1.171875 
Q 16.015625 1.171875 9.953125 7.21875 
Q 3.90625 13.28125 3.90625 23.828125 
Q 3.90625 34.375 9.953125 40.421875 
Q 16.015625 46.484375 25.390625 46.484375 
Q 33.59375 46.484375 38.859375 41.203125 
Q 44.140625 35.9375 44.140625 23.828125 
L 12.5 23.828125 
Q 12.5 15.234375 16.203125 11.71875 
Q 19.921875 8.203125 25.390625 8.203125 
Q 29.6875 8.203125 32.421875 10.34375 
Q 35.15625 12.5 35.9375 16.796875 
z
M 35.15625 30.078125 
Q 34.375 35.546875 31.640625 37.6875 
Q 28.90625 39.84375 24.609375 39.84375 
Q 20.703125 39.84375 17.578125 37.6875 
Q 14.453125 35.546875 12.890625 30.078125 
z
" id="SimHei-101"/>
      <path d="M 42.96875 3.125 
Q 41.015625 2.34375 38.46875 1.75 
Q 35.9375 1.171875 31.640625 1.171875 
Q 24.609375 1.171875 20.3125 5.078125 
Q 16.015625 8.984375 16.015625 16.015625 
L 16.015625 39.453125 
L 2.734375 39.453125 
L 2.734375 45.703125 
L 16.015625 45.703125 
L 16.015625 60.9375 
L 23.828125 60.9375 
L 23.828125 45.703125 
L 39.84375 45.703125 
L 39.84375 39.453125 
L 23.828125 39.453125 
L 23.828125 15.625 
Q 23.828125 12.5 25.390625 10.34375 
Q 26.953125 8.203125 31.25 8.203125 
Q 35.546875 8.203125 38.28125 8.984375 
Q 41.015625 9.765625 42.96875 10.9375 
z
" id="SimHei-116"/>
      <path d="M 45.703125 23.828125 
Q 45.703125 13.671875 39.453125 7.421875 
Q 33.203125 1.171875 24.609375 1.171875 
Q 16.015625 1.171875 9.765625 7.421875 
Q 3.515625 13.671875 3.515625 23.828125 
Q 3.515625 33.984375 9.765625 40.234375 
Q 16.015625 46.484375 24.609375 46.484375 
Q 33.203125 46.484375 39.453125 40.234375 
Q 45.703125 33.984375 45.703125 23.828125 
z
M 37.109375 23.828125 
Q 37.109375 31.640625 33.203125 35.546875 
Q 29.296875 39.453125 24.609375 39.453125 
Q 19.921875 39.453125 16.015625 35.546875 
Q 12.109375 31.640625 12.109375 23.828125 
Q 12.109375 16.015625 16.015625 12.109375 
Q 19.921875 8.203125 24.609375 8.203125 
Q 29.296875 8.203125 33.203125 12.109375 
Q 37.109375 16.015625 37.109375 23.828125 
z
" id="SimHei-111"/>
      <path id="SimHei-32"/>
      <path d="M 43.75 1.953125 
L 35.9375 1.953125 
L 35.9375 30.078125 
Q 35.9375 34.765625 33.59375 37.5 
Q 31.25 40.234375 27.34375 40.234375 
Q 22.265625 40.234375 17.765625 34.953125 
Q 13.28125 29.6875 13.28125 21.875 
L 13.28125 1.953125 
L 5.46875 1.953125 
L 5.46875 45.703125 
L 13.28125 45.703125 
L 13.28125 37.5 
Q 16.40625 41.796875 20.109375 44.140625 
Q 23.828125 46.484375 29.6875 46.484375 
Q 36.71875 46.484375 40.234375 42.578125 
Q 43.75 38.671875 43.75 32.8125 
z
" id="SimHei-110"/>
     </defs>
     <g transform="translate(328.8 23.2)scale(0.1 -0.1)">
      <use xlink:href="#SimHei-80"/>
      <use x="50" xlink:href="#SimHei-97"/>
      <use x="100" xlink:href="#SimHei-114"/>
      <use x="150" xlink:href="#SimHei-101"/>
      <use x="200" xlink:href="#SimHei-116"/>
      <use x="250" xlink:href="#SimHei-111"/>
      <use x="300" xlink:href="#SimHei-32"/>
      <use x="350" xlink:href="#SimHei-70"/>
      <use x="400" xlink:href="#SimHei-114"/>
      <use x="450" xlink:href="#SimHei-111"/>
      <use x="500" xlink:href="#SimHei-110"/>
      <use x="550" xlink:href="#SimHei-116"/>
     </g>
    </g>
   </g>
  </g>
 </g>
 <defs>
  <clipPath id="pf29ee61980">
   <rect height="255.024" width="390.6" x="7.2" y="7.2"/>
  </clipPath>
 </defs>
</svg>
